<svg xmlns="http://www.w3.org/2000/svg" width="224" height="448" viewBox="0 0 224 448">
  <defs>
    <linearGradient id="bg2" x1="0%" y1="0%" x2="100%" y2="100%">
      <stop offset="0%" style="stop-color:#1a1a25"/>
      <stop offset="100%" style="stop-color:#12121a"/>
    </linearGradient>
    <linearGradient id="accent2" x1="0%" y1="0%" x2="100%" y2="100%">
      <stop offset="0%" style="stop-color:#667eea"/>
      <stop offset="100%" style="stop-color:#764ba2"/>
    </linearGradient>
  </defs>
  <rect width="224" height="448" rx="16" fill="url(#bg2)"/>
  <rect x="16" y="50" width="192" height="30" rx="6" fill="url(#accent2)" opacity="0.3"/>
  <text x="112" y="72" text-anchor="middle" fill="#fff" font-family="system-ui" font-size="12" font-weight="600">🤖 AI Hints</text>
  <rect x="16" y="100" width="192" height="100" rx="12" fill="url(#accent2)" opacity="0.15"/>
  <text x="112" y="140" text-anchor="middle" fill="#a0a0b0" font-family="system-ui" font-size="11">💡 Nudge</text>
  <text x="112" y="165" text-anchor="middle" fill="#667eea" font-family="system-ui" font-size="10">"Think about words</text>
  <text x="112" y="180" text-anchor="middle" fill="#667eea" font-family="system-ui" font-size="10">related to weather..."</text>
  <rect x="16" y="220" width="60" height="36" rx="8" fill="url(#accent2)" opacity="0.2"/>
  <rect x="82" y="220" width="60" height="36" rx="8" fill="url(#accent2)"/>
  <rect x="148" y="220" width="60" height="36" rx="8" fill="url(#accent2)" opacity="0.2"/>
  <text x="46" y="243" text-anchor="middle" fill="#a0a0b0" font-family="system-ui" font-size="9">Nudge</text>
  <text x="112" y="243" text-anchor="middle" fill="#fff" font-family="system-ui" font-size="9" font-weight="600">Hint</text>
  <text x="178" y="243" text-anchor="middle" fill="#a0a0b0" font-family="system-ui" font-size="9">Strong</text>
  <rect x="16" y="280" width="192" height="120" rx="12" fill="url(#accent2)" opacity="0.1"/>
  <text x="112" y="320" text-anchor="middle" fill="#606070" font-family="system-ui" font-size="10">Works with any game</text>
  <text x="112" y="340" text-anchor="middle" fill="#606070" font-family="system-ui" font-size="10">in Game Shelf</text>
</svg>
